<svg id="Layer_1" data-name="Layer 1" xmlns="http://www.w3.org/2000/svg" xmlns:xlink="http://www.w3.org/1999/xlink" viewBox="0 0 311.55 66.46"><defs><style>.cls-1{fill:none;stroke:#f9a746;stroke-miterlimit:10;stroke-width:3px;}.cls-2{fill:url(#linear-gradient);}.cls-3{fill:url(#linear-gradient-2);}.cls-4{font-size:48px;fill:#714198;font-family:GeomaRegularDemo, Geoma Regular Demo;}.cls-5{letter-spacing:-0.1em;}.cls-6{fill:#58595b;letter-spacing:-0.1em;}.cls-6,.cls-7{font-size:36px;font-family:BeVietnam-Bold, Be Vietnam;font-weight:700;}.cls-7{fill:#231f20;letter-spacing:-0.1em;}.cls-8{fill:#f9a746;}</style><linearGradient id="linear-gradient" x1="50.6" y1="187.88" x2="16.22" y2="132.26" gradientUnits="userSpaceOnUse"><stop offset="0" stop-color="#703f97"/><stop offset="0.55" stop-color="#5181c2"/></linearGradient><linearGradient id="linear-gradient-2" x1="63.44" y1="179.95" x2="29.06" y2="124.33" gradientTransform="translate(122.06 352.11) rotate(-180)" gradientUnits="userSpaceOnUse"><stop offset="0" stop-color="#703f97"/><stop offset="0.36" stop-color="#5f63af"/><stop offset="0.78" stop-color="#4e86c7"/><stop offset="1" stop-color="#4794d0"/></linearGradient></defs><title>logo-color</title><g id="logo"><path class="cls-1" d="M58.34,143.73l.29,6.8a6.8,6.8,0,1,0-7-5.71Z" transform="translate(-22.32 -135.44)"/><path class="cls-2" d="M38.26,141.6a9,9,0,0,0-9.72-2.53,8.74,8.74,0,0,0-6.21,7.06.37.37,0,0,0,0,.11v34.93s-.06,8.76,8.94,8.78c9.31,0,9.48-8.78,9.48-8.78v-4.46a1.06,1.06,0,0,1,1.63-.9,11.09,11.09,0,0,0,5,1.7c9.81,1.16,15.11-11.44,15.11-11.44.11-.26-2.39-2.73-2.48-2.65s-.31-1.76-.53-1.53c-.82-.19-1.41,2.69-2,3.29-.62,1.16-6.36,8.17-10.86,7.28-3.08-.61-6.31-6.22-6.31-6.22s-1.48-1.63-3-1.22a2,2,0,0,0-1.67,1.84s.68,11.14,0,14.77c-.25,1.35-1.42,3.45-4.58,3-2.78-.36-3.44-1.86-3.58-3-1-8.57,0-34.51,0-34.51a4.61,4.61,0,0,1,2.78-3.21c1.5-.71,3.78.69,4.28,1a.8.8,0,0,1,.17.15l9.1,9.87a5.88,5.88,0,0,0,3.77,2.12,5.46,5.46,0,0,0,3.53-1.5c-.23.15,1.56-1.6,2-2.18a2.11,2.11,0,0,0-.31-3.32c-2-1.68-2.84-.66-3.42,0-.38.43-1.41,1.45-1.82,1.42" transform="translate(-22.32 -135.44)"/><rect class="cls-3" x="58.33" y="161.16" width="5.39" height="29.79" rx="2.7" transform="translate(99.74 216.67) rotate(180)"/><text class="cls-4" transform="translate(44.39 56.05)">obile<tspan class="cls-5" x="104.55" y="0"> </tspan><tspan class="cls-6" x="111.52" y="0">&amp;</tspan><tspan class="cls-7" x="131.93" y="0"> </tspan><tspan class="cls-8" x="136.61" y="0">Vapes</tspan></text></g></svg>